# xmcd
#
# Track frame offsets: 
#        150
#        15032
#        26179
#        40700
#        55263
#        68613
#        84461
#        98060
#        109810
#        127030
#        141370
#        157103
#        175858
#        191310
#        209213
#        225728
#        237923
#        254818
#        273296
#        295263
#        308443
#
# Disc length: 4296 seconds
#
# Revision: 0
# Processed by: cddbd v1.5.1PL0 Copyright (c) Steve Scherf et al.
# Submitted via: ExactAudioCopy v0.95a5
#
DISCID=2810c615
DTITLE=Various Artist - Sony-ATV Country Music [CD7: 1993-1996)
DYEAR=2003
DGENRE=Country
TTITLE0=Brooks and Dunn - Boot Scootin' Boogie
TTITLE1=Alan Jackson - Chattahoochee
TTITLE2=Pam Tillis - Cleopatra, Queen Of Denial
TTITLE3=Carlene Carter - Every Little Thing
TTITLE4=Brooks and Dunn - Hard Workin' Man
TTITLE5=Pam Tillis - Let That Pony Run
TTITLE6=John Anderson - Money In The Bank
TTITLE7=Martina McBride - My Baby Loves Me
TTITLE8=Patty Loveless - Nothin' But The Wheel
TTITLE9=Vince Gill - One More Last Chance
TTITLE10=Alan Jackson - (Who Says) You Can't Have It All
TTITLE11=Tim McGraw - Don't Take The Girl
TTITLE12=Martina McBride - Independence Day
TTITLE13=Collin Raye - Little Rock
TTITLE14=Wade Hayes - Old Enough To Know Better
TTITLE15=Neal McCoy - Wink
TTITLE16=Martina McBride - Wild Angels
TTITLE17=Patty Loveless - You Don't Even Know Who I Am
TTITLE18=Brooks and Dunn - You're Gonna Miss Me When I'm Gone
TTITLE19=George Strait - Blue Clear Sky
TTITLE20=Ricochet - Daddy's Money
EXTD=
EXTT0=
EXTT1=
EXTT2=
EXTT3=
EXTT4=
EXTT5=
EXTT6=
EXTT7=
EXTT8=
EXTT9=
EXTT10=
EXTT11=
EXTT12=
EXTT13=
EXTT14=
EXTT15=
EXTT16=
EXTT17=
EXTT18=
EXTT19=
EXTT20=
PLAYORDER=
